<?xml version="1.0" encoding="UTF-8" standalone="no"?> <svg id="Layer_1" data-name="Layer 1" xmlns="http://www.w3.org/2000/svg" viewBox="0 0 128 128"><defs><style>.cls-1{fill:#2d3e50;}</style></defs><title>x</title><path class="cls-1" d="M70.61741,3.79225A54.6967,54.6967,0,0,0,16.6863,49.819C16.24207,52.61805,2.77,124.20775,2.77,124.20775l40.06343-18.77821A54.61545,54.61545,0,1,0,70.61741,3.79225ZM41.92675,65.5973a7.13768,7.13768,0,1,1,7.14375-7.13766A7.13634,7.13634,0,0,1,41.92675,65.5973Zm28.43506,0a7.13768,7.13768,0,1,1,7.14375-7.13766A7.13634,7.13634,0,0,1,70.36181,65.5973Zm28.4351,0a7.13768,7.13768,0,1,1,7.14375-7.13766A7.13635,7.13635,0,0,1,98.79691,65.5973Z"/></svg>